<?xml version="1.0" standalone="no"?>
<!DOCTYPE svg PUBLIC "-//W3C//DTD SVG 1.1//EN" "http://www.w3.org/Graphics/SVG/1.1/DTD/svg11.dtd" >
<svg xmlns="http://www.w3.org/2000/svg">
<metadata></metadata>
<defs>
<font id="valueregular" horiz-adv-x="1216" >
<font-face units-per-em="2048" ascent="1638" descent="-410" />
<missing-glyph horiz-adv-x="645" />
<glyph unicode="&#xfb01;" horiz-adv-x="1157" d="M90 864v148h133v151q0 128 81 213.5t196 85.5q91 0 170 -43l6 -157h-17q-26 26 -63 39.5t-68 13.5q-66 0 -103.5 -42.5t-37.5 -119.5v-141h180v-148h-180v-864h-164v864h-133zM819 1319q0 47 34 81t81 34t81 -34t34 -81t-34 -81t-81 -34t-81 34t-34 81zM852 0v1012h164 v-1012h-164z" />
<glyph unicode="&#xfb02;" horiz-adv-x="1136" d="M90 864v148h133v151q0 128 81 213.5t196 85.5q91 0 170 -43l6 -157h-17q-26 26 -63 39.5t-68 13.5q-66 0 -103.5 -42.5t-37.5 -119.5v-141h180v-148h-180v-864h-164v864h-133zM842 0v1475h164v-1475h-164z" />
<glyph horiz-adv-x="0" />
<glyph horiz-adv-x="0" />
<glyph horiz-adv-x="682" />
<glyph unicode="&#xd;" horiz-adv-x="0" />
<glyph unicode=" "  horiz-adv-x="645" />
<glyph unicode="&#x09;" horiz-adv-x="645" />
<glyph unicode="&#xa0;" horiz-adv-x="645" />
<glyph unicode="!" horiz-adv-x="520" d="M143 113q0 53 36.5 89t88.5 36t88.5 -36t36.5 -89t-36.5 -89t-88.5 -36t-88.5 36t-36.5 89zM186 410v1024h164v-1024h-164z" />
<glyph unicode="&#x22;" horiz-adv-x="692" d="M82 1434h201l-45 -451h-111zM410 1434h200l-45 -451h-110z" />
<glyph unicode="#" horiz-adv-x="1398" d="M61 408l31 139h246l63 340h-258l31 139h252l76 408h151l-75 -408h358l76 408h151l-76 -408h250l-30 -139h-246l-64 -340h258l-30 -139h-252l-76 -408h-152l76 408h-358l-76 -408h-151l75 408h-250zM489 547h357l63 340h-356z" />
<glyph unicode="$" horiz-adv-x="1060" d="M109 135l12 213h20q47 -58 90 -99.5t110.5 -77t139.5 -42.5v567q-163 71 -258.5 175.5t-95.5 240.5q0 145 100.5 238.5t253.5 107.5v131h119v-131q157 -16 268 -110l9 -197h-27q-119 131 -250 158v-486q375 -160 375 -422q0 -164 -104.5 -281.5t-270.5 -142.5v-133h-119 v129q-220 10 -372 162zM291 1118q0 -71 48.5 -127.5t141.5 -109.5v430q-86 -12 -138 -65.5t-52 -127.5zM600 135q89 20 140 84t51 158q0 85 -48.5 147t-142.5 115v-504z" />
<glyph unicode="%" horiz-adv-x="1318" d="M76 1139q0 137 96.5 230t235.5 93t235 -93t96 -230t-96 -230.5t-235 -93.5t-235.5 93.5t-96.5 230.5zM139 518l961 498l51 -101l-961 -497zM207 1139q0 -92 58 -148.5t143 -56.5t142.5 56.5t57.5 148.5t-57.5 148t-142.5 56t-143 -56t-58 -148zM567 295q0 137 96.5 230 t235.5 93t235.5 -93t96.5 -230t-96.5 -230.5t-235.5 -93.5t-235.5 93.5t-96.5 230.5zM698 295q0 -92 58 -148.5t143 -56.5t143 56.5t58 148.5t-58 148.5t-143 56.5t-143 -56.5t-58 -148.5z" />
<glyph unicode="&#x26;" horiz-adv-x="1296" d="M78 387q0 119 75 229t228 191q-137 173 -137 313q0 107 55 187t136.5 117.5t172.5 37.5q149 0 252 -89t103 -216q0 -240 -332 -397l303 -369q90 128 149 299h17l49 -201q-51 -126 -117 -219l223 -270h-206l-123 147q-185 -176 -418 -176q-186 0 -308 116.5t-122 299.5z M262 395q0 -121 74.5 -194.5t193.5 -73.5q154 0 299 139l-350 422q-111 -56 -164 -132.5t-53 -160.5zM416 1120q0 -96 119 -241q151 66 207.5 128t56.5 136q0 73 -53.5 122.5t-137.5 49.5t-138 -54t-54 -141z" />
<glyph unicode="'" horiz-adv-x="364" d="M82 1434h201l-45 -451h-111z" />
<glyph unicode="(" horiz-adv-x="595" d="M102 485q0 289 87 527.5t225 421.5h141q-289 -482 -289 -949q0 -466 289 -948h-141q-138 183 -225 421t-87 527z" />
<glyph unicode=")" horiz-adv-x="595" d="M41 -463q289 482 289 948q0 467 -289 949h141q138 -183 225 -421.5t87 -527.5t-87 -527t-225 -421h-141z" />
<glyph unicode="*" horiz-adv-x="774" d="M90 1038l4 19l242 73l-242 74l-4 19l70 118l16 7l186 -172l-57 245l12 13h140l12 -13l-57 -245l186 172l16 -7l70 -118l-4 -19l-242 -74l242 -73l4 -19l-70 -118l-16 -7l-186 172l57 -245l-12 -13h-140l-12 13l57 245l-186 -172l-16 7z" />
<glyph unicode="+" horiz-adv-x="1011" d="M98 684v135h340v340h135v-340h340v-135h-340v-340h-135v340h-340z" />
<glyph unicode="," horiz-adv-x="413" d="M90 100q0 51 33 86t82 35q51 0 85 -36t34 -87q0 -107 -56.5 -189t-146.5 -130l-15 39q93 62 99 170q-46 0 -80.5 32t-34.5 80z" />
<glyph unicode="-" horiz-adv-x="802" d="M86 582v135h631v-135h-631z" />
<glyph unicode="." horiz-adv-x="413" d="M90 102q0 49 34 84t81 35q49 0 84 -34.5t35 -84.5q0 -47 -35 -80.5t-84 -33.5q-47 0 -81 33.5t-34 80.5z" />
<glyph unicode="/" horiz-adv-x="1054" d="M31 0l817 1434h176l-817 -1434h-176z" />
<glyph unicode="0" horiz-adv-x="1425" d="M102 717q0 214 72.5 382.5t212.5 265.5t326 97q140 0 255.5 -56.5t193 -155.5t119.5 -236t42 -297q0 -215 -72 -383t-212 -265.5t-326 -97.5t-326 97.5t-212.5 266t-72.5 382.5zM287 717q0 -273 119 -431.5t307 -158.5t307 158.5t119 431.5t-119 431.5t-307 158.5 t-307 -158.5t-119 -431.5z" />
<glyph unicode="1" horiz-adv-x="471" d="M143 0v1337l142 97h43v-1434h-185z" />
<glyph unicode="2" horiz-adv-x="1130" d="M78 0v20l561 685q81 100 116.5 179.5t35.5 170.5q0 117 -77.5 184.5t-191.5 67.5q-107 0 -204 -60t-158 -160h-19l13 213q73 75 172 118.5t200 43.5q195 0 318 -114t123 -283q0 -118 -52 -223t-141 -215l-387 -471h639v-156h-948z" />
<glyph unicode="3" horiz-adv-x="1161" d="M119 1278v156h864v-21l-367 -473q88 -11 164 -43.5t138.5 -87.5t98.5 -140t36 -192q0 -228 -145.5 -367t-381.5 -139q-111 0 -195 26t-167 71l-23 194h17q172 -135 377 -135q151 0 246.5 93.5t95.5 242.5q0 106 -52 185t-133 117t-176 38q-73 0 -162 -21l-18 37l346 459 h-563z" />
<glyph unicode="4" horiz-adv-x="1124" d="M39 356v82l801 996h43v-922h159v-156h-159v-356h-185v356h-659zM291 512h407v504z" />
<glyph unicode="5" horiz-adv-x="1134" d="M113 260h16q178 -133 387 -133q67 0 129.5 22.5t112.5 65.5t80 112t30 154q0 169 -101 261t-251 92q-173 0 -358 -129l-35 6l88 723h764v-156h-629l-51 -373q132 64 270 64q136 0 244 -57.5t171.5 -169.5t63.5 -261q0 -226 -150 -368t-380 -142q-99 0 -180 20t-182 66z " />
<glyph unicode="6" d="M98 647q0 128 24 247t74 222.5t121.5 180t172.5 121t221 44.5q144 0 260 -65l18 -185h-24q-70 54 -128.5 74.5t-125.5 20.5q-184 0 -296 -141t-132 -408q72 84 175 128t204 44q210 0 337 -131.5t127 -343.5q0 -128 -66 -239t-182 -178t-253 -67q-114 0 -209 43t-160 117 q-158 181 -158 516zM299 455q0 -141 90.5 -234.5t233.5 -93.5t231 93t88 235t-88 234.5t-231 92.5t-233.5 -93t-90.5 -234z" />
<glyph unicode="7" horiz-adv-x="1095" d="M111 1278v156h952v-21l-711 -1413h-184l651 1278h-708z" />
<glyph unicode="8" horiz-adv-x="1142" d="M102 410q0 127 64 225.5t166 152.5q-170 116 -170 297q0 162 114.5 269.5t294.5 107.5t295 -108t115 -269q0 -181 -170 -297q102 -54 165.5 -152.5t63.5 -225.5q0 -77 -30.5 -153.5t-86.5 -141t-148 -104.5t-204 -40t-204 40t-148 104.5t-86.5 141t-30.5 153.5zM279 418 q0 -130 85 -210.5t207 -80.5t207.5 80.5t85.5 210.5t-85.5 210.5t-207.5 80.5t-207 -80.5t-85 -210.5zM326 1085q0 -101 70.5 -165t174.5 -64q105 0 175.5 64t70.5 165t-71 165.5t-175 64.5t-174.5 -64.5t-70.5 -165.5z" />
<glyph unicode="9" d="M90 979q0 128 65 238.5t181 177.5t256 67q114 0 211 -42.5t162 -116.5q153 -175 153 -517q0 -128 -24 -246.5t-74 -222.5t-121 -180.5t-172 -121t-221 -44.5q-142 0 -260 66l-19 184h25q70 -54 128 -74t126 -20q184 0 296 141t132 408q-142 -172 -379 -172 q-205 0 -335 132.5t-130 342.5zM274 979q0 -142 88.5 -235t231.5 -93t233.5 93.5t90.5 234.5t-90.5 234.5t-233.5 93.5t-231.5 -93t-88.5 -235z" />
<glyph unicode=":" horiz-adv-x="413" d="M90 102q0 49 34 84t81 35q49 0 84 -34.5t35 -84.5q0 -47 -35 -80.5t-84 -33.5q-47 0 -81 33.5t-34 80.5zM90 856q0 49 34 84t81 35q49 0 84 -34.5t35 -84.5q0 -47 -35 -81t-84 -34q-47 0 -81 34t-34 81z" />
<glyph unicode=";" horiz-adv-x="413" d="M90 100q0 51 33 86t82 35q51 0 85 -36t34 -87q0 -107 -56.5 -189t-146.5 -130l-15 39q93 62 99 170q-46 0 -80.5 32t-34.5 80zM90 856q0 49 34 84t81 35q49 0 84 -34.5t35 -84.5q0 -47 -35 -81t-84 -34q-47 0 -81 34t-34 81z" />
<glyph unicode="&#x3c;" horiz-adv-x="835" d="M98 639v143l619 439h20v-166l-489 -344l489 -344v-166h-20z" />
<glyph unicode="=" horiz-adv-x="1011" d="M98 397v135h815v-135h-815zM98 848v135h815v-135h-815z" />
<glyph unicode="&#x3e;" horiz-adv-x="835" d="M98 201v166l490 344l-490 344v166h21l618 -439v-143l-618 -438h-21z" />
<glyph unicode="?" horiz-adv-x="999" d="M113 1163l12 176q61 50 151 86.5t177 36.5q172 0 282.5 -90.5t110.5 -241.5q0 -86 -33 -160t-79.5 -125.5t-93 -100t-79.5 -107t-33 -123.5v-88h-163v63q0 71 23.5 134.5t58.5 107.5t76.5 91t76.5 86.5t58.5 93.5t23.5 112q0 97 -65.5 155t-172.5 58q-93 0 -178 -50 t-135 -114h-18zM330 113q0 53 36 89t89 36t89 -36t36 -89t-36 -89t-89 -36t-89 36t-36 89z" />
<glyph unicode="@" horiz-adv-x="1806" d="M102 645q0 173 65.5 326.5t176.5 260t260.5 168.5t313.5 62q166 0 312.5 -58.5t250 -159.5t163.5 -243t60 -303q0 -201 -93 -316.5t-227 -115.5q-86 0 -145.5 44t-85.5 116q-125 -160 -299 -160q-69 0 -133.5 26.5t-115.5 75t-82 123t-31 162.5q0 89 31.5 163t84 122.5 t119.5 75t139 26.5q70 0 137.5 -31.5t110.5 -82.5v94h137v-422q0 -106 38 -159.5t106 -53.5q69 0 119.5 84t50.5 213q0 125 -36 231t-98.5 181.5t-145 128.5t-176 78.5t-191.5 25.5q-123 0 -240 -46t-211 -130.5t-151.5 -216t-57.5 -289.5q0 -159 54.5 -290t146.5 -216 t210.5 -131.5t248.5 -46.5q209 0 374 121h19l-8 -152q-180 -104 -385 -104q-175 0 -327 62t-259.5 170t-168.5 260t-61 327zM631 653q0 -119 67.5 -193.5t175.5 -74.5q109 0 177.5 75t68.5 193q0 119 -68.5 194t-177.5 75q-108 0 -175.5 -75t-67.5 -194z" />
<glyph unicode="A" horiz-adv-x="1368" d="M35 0l622 1434h54l622 -1434h-184l-123 291h-684l-123 -291h-184zM410 446h548l-274 644z" />
<glyph unicode="B" horiz-adv-x="1210" d="M143 0v1434h465q213 0 338 -99.5t125 -255.5q0 -224 -209 -325q129 -40 206 -130t77 -218q0 -101 -41.5 -180.5t-111 -127.5t-153.5 -73t-175 -25h-521zM328 156h329q143 0 223.5 68.5t80.5 183.5t-80.5 183t-223.5 68h-329v-503zM328 815h297q127 0 198.5 63.5 t71.5 168.5t-71.5 168t-198.5 63h-297v-463z" />
<glyph unicode="C" horiz-adv-x="1359" d="M82 717q0 160 57.5 299t156.5 236.5t234.5 153.5t286.5 56q237 0 418 -123l12 -202h-20q-184 170 -418 170q-109 0 -207 -41t-173 -115t-119 -186.5t-44 -247.5t44 -247.5t119 -186.5t173 -115t207 -41q234 0 418 170h20l-12 -203q-181 -123 -424 -123q-151 0 -285.5 56 t-232 153.5t-154.5 237t-57 299.5z" />
<glyph unicode="D" horiz-adv-x="1280" d="M143 0v1434h320q147 0 280 -49.5t234 -139.5t161 -227t60 -301t-60 -301t-161 -227t-234 -139.5t-280 -49.5h-320zM328 156h139q114 0 213.5 37.5t174 107t117 177t42.5 239.5t-42.5 239.5t-117 177t-174 107t-213.5 37.5h-139v-1122z" />
<glyph unicode="E" horiz-adv-x="1062" d="M143 0v1434h820v-156h-635v-463h612v-156h-612v-503h643v-156h-828z" />
<glyph unicode="F" horiz-adv-x="1105" d="M143 0v1434h852v-156h-667v-514h645v-156h-645v-608h-185z" />
<glyph unicode="G" horiz-adv-x="1499" d="M82 717q0 163 60.5 303.5t163.5 236.5t240.5 150.5t289.5 54.5q275 0 458 -133l13 -188h-25q-114 92 -218 129t-226 37q-108 0 -208.5 -37.5t-182.5 -108.5t-131.5 -186t-49.5 -258t46.5 -258t124.5 -186t174.5 -108.5t201.5 -37.5q227 0 391 158v362h-454v156h639v-576 q-256 -256 -582 -256q-148 0 -280.5 54.5t-231 151t-156 237t-57.5 303.5z" />
<glyph unicode="H" horiz-adv-x="1331" d="M143 0v1434h185v-600h676v600h184v-1434h-184v678h-676v-678h-185z" />
<glyph unicode="I" horiz-adv-x="471" d="M143 0v1434h185v-1434h-185z" />
<glyph unicode="J" horiz-adv-x="774" d="M92 174h27q89 -47 170 -47q168 0 168 190v1117h184v-1096q0 -167 -88.5 -267t-249.5 -100q-91 0 -192 29z" />
<glyph unicode="K" horiz-adv-x="1161" d="M143 0v1434h185v-699l542 699h215l-561 -705l611 -729h-215l-592 707v-707h-185z" />
<glyph unicode="L" horiz-adv-x="1138" d="M143 0v1434h185v-1278h737v-156h-922z" />
<glyph unicode="M" horiz-adv-x="1789" d="M45 0l373 1434h61l416 -1049l416 1049h61l373 -1434h-184l-248 961l-398 -961h-41l-397 961l-248 -961h-184z" />
<glyph unicode="N" horiz-adv-x="1382" d="M143 0v1434h70l842 -1008v1008h184v-1434h-70l-841 1012v-1012h-185z" />
<glyph unicode="O" horiz-adv-x="1658" d="M82 717q0 158 58.5 296.5t158 237t237.5 155t293 56.5t293 -56.5t238 -155t158.5 -237t58.5 -296.5q0 -210 -99.5 -381.5t-270.5 -268t-378 -96.5t-378 96.5t-270 268t-99 381.5zM266 717q0 -135 44 -247.5t120.5 -186.5t179 -115t219.5 -41q157 0 284 69.5t203.5 205.5 t76.5 315t-76.5 315t-203.5 205.5t-284 69.5q-117 0 -219.5 -41t-179 -115t-120.5 -186.5t-44 -247.5z" />
<glyph unicode="P" horiz-adv-x="1048" d="M143 0v1434h365q119 0 215.5 -35.5t158.5 -96t95 -138.5t33 -165t-33 -164.5t-95 -138t-158.5 -96t-215.5 -35.5h-180v-565h-185zM328 721h182q142 0 228.5 71t86.5 207t-86.5 207.5t-228.5 71.5h-182v-557z" />
<glyph unicode="Q" horiz-adv-x="1658" d="M82 717q0 158 58.5 296.5t158 237t237.5 155t293 56.5t293 -56.5t238 -155t158.5 -237t58.5 -296.5q0 -284 -172 -484l192 -192l-112 -117l-197 195q-200 -148 -459 -148q-207 0 -378 96.5t-270 268t-99 381.5zM266 717q0 -135 44 -247.5t120.5 -186.5t179 -115 t219.5 -41q200 0 345 109l-193 194l115 115l190 -193q107 156 107 365q0 179 -76.5 315t-203.5 205.5t-284 69.5q-117 0 -219.5 -41t-179 -115t-120.5 -186.5t-44 -247.5z" />
<glyph unicode="R" horiz-adv-x="1124" d="M143 0v1434h379q213 0 347.5 -108t134.5 -294q0 -74 -25.5 -138t-69.5 -109.5t-97.5 -78t-115.5 -51.5l396 -655h-201l-381 631h-182v-631h-185zM328 786h198q140 0 216.5 63.5t76.5 182.5t-76.5 182.5t-216.5 63.5h-198v-492z" />
<glyph unicode="S" horiz-adv-x="1060" d="M109 135l12 213h20q78 -99 168.5 -160t208.5 -61q126 0 199.5 68t73.5 182q0 56 -21.5 103t-65 85t-95 67.5t-124.5 61.5q-164 70 -261 176t-97 242q0 158 118 254t290 96q199 0 333 -114l9 -197h-27q-139 164 -322 164q-104 0 -170.5 -56t-66.5 -141q0 -91 78.5 -160 t228.5 -133q183 -77 280 -180.5t97 -243.5q0 -184 -129.5 -307t-327.5 -123q-241 0 -409 164z" />
<glyph unicode="T" horiz-adv-x="1101" d="M82 1278v156h938v-156h-377v-1278h-184v1278h-377z" />
<glyph unicode="U" horiz-adv-x="1306" d="M123 535v899h184v-930q0 -98 30 -173t80.5 -118t110 -64.5t125.5 -21.5t125.5 21.5t110 64.5t80.5 118t30 173v930h185v-899q0 -268 -146 -416t-385 -148q-238 0 -384 147.5t-146 416.5z" />
<glyph unicode="V" horiz-adv-x="1400" d="M31 1434h184l485 -1125l486 1125h184l-631 -1434h-77z" />
<glyph unicode="W" horiz-adv-x="1933" d="M45 1434h184l322 -1012l387 1012h57l387 -1012l322 1012h184l-479 -1434h-45l-397 1051l-398 -1051h-45z" />
<glyph unicode="X" horiz-adv-x="1206" d="M49 0l471 774l-395 660h184l299 -512l305 512h185l-400 -658l459 -776h-184l-367 625l-373 -625h-184z" />
<glyph unicode="Y" horiz-adv-x="1200" d="M29 1434h196l375 -652l375 652h196l-479 -811v-623h-184v623z" />
<glyph unicode="Z" horiz-adv-x="1218" d="M57 0v20l779 1258h-717v156h995v-21l-786 -1257h819v-156h-1090z" />
<glyph unicode="[" horiz-adv-x="559" d="M123 -463v1897h364v-156h-200v-1585h200v-156h-364z" />
<glyph unicode="\" horiz-adv-x="1054" d="M31 1434h176l817 -1434h-176z" />
<glyph unicode="]" horiz-adv-x="559" d="M72 -307h200v1585h-200v156h364v-1897h-364v156z" />
<glyph unicode="^" horiz-adv-x="1032" d="M72 811v20l391 603h106l392 -603v-20h-152l-293 446l-293 -446h-151z" />
<glyph unicode="_" horiz-adv-x="1028" d="M45 0h938v-135h-938v135z" />
<glyph unicode="`" horiz-adv-x="577" d="M74 1434h241l189 -281h-139z" />
<glyph unicode="a" horiz-adv-x="1255" d="M78 506q0 146 68.5 268.5t190 194t269.5 71.5q112 0 204.5 -44t150.5 -111v127h163v-1012h-163v127q-58 -67 -150.5 -111.5t-204.5 -44.5q-148 0 -269.5 72t-190 194.5t-68.5 268.5zM242 506q0 -163 100 -275t264 -112t264.5 112t100.5 275t-100.5 275t-264.5 112 t-264 -112t-100 -275z" />
<glyph unicode="b" horiz-adv-x="1263" d="M131 0v1475h164v-611q66 73 165 124.5t216 51.5q104 0 197.5 -39.5t162.5 -109t109.5 -169.5t40.5 -216q0 -154 -69.5 -277t-188 -190.5t-262.5 -67.5q-116 0 -211 46.5t-160 119.5v-137h-164zM285 506q0 -163 101.5 -275t266.5 -112t267 112t102 275t-102 275t-267 112 t-266.5 -112t-101.5 -275z" />
<glyph unicode="c" horiz-adv-x="1011" d="M78 506q0 161 74.5 284.5t193.5 186.5t260 63q178 0 293 -90l6 -164h-18q-67 57 -131 82t-150 25q-161 0 -262.5 -109t-101.5 -278q0 -171 97 -279t267 -108q84 0 147.5 24.5t129.5 81.5h18l-6 -164q-111 -90 -289 -90q-145 0 -264 63.5t-191.5 187t-72.5 284.5z" />
<glyph unicode="d" horiz-adv-x="1263" d="M78 506q0 228 153 381t379 153q112 0 207.5 -45.5t151.5 -115.5v596h164v-1475h-164v137q-145 -166 -371 -166q-218 0 -369 154t-151 381zM242 506q0 -163 101.5 -275t266.5 -112t267 112t102 275t-102 275t-267 112t-266.5 -112t-101.5 -275z" />
<glyph unicode="e" horiz-adv-x="1157" d="M78 506q0 112 40.5 212t109 170t161 111t193.5 41q215 0 352 -135.5t137 -359.5v-82h-829q9 -108 65 -188t133.5 -118t163.5 -38q108 0 193.5 36.5t185.5 127.5h16l-6 -179q-90 -67 -182 -100t-205 -33q-148 0 -269.5 71t-190 193.5t-68.5 270.5zM250 598h672 q-15 137 -108 222t-232 85q-117 0 -212 -80.5t-120 -226.5z" />
<glyph unicode="f" horiz-adv-x="708" d="M90 864v148h133v151q0 128 81 213.5t196 85.5q91 0 170 -43l6 -157h-17q-26 26 -63 39.5t-68 13.5q-66 0 -103.5 -42.5t-37.5 -119.5v-141h180v-148h-180v-864h-164v864h-133z" />
<glyph unicode="g" horiz-adv-x="1241" d="M78 520q0 117 43 216.5t115 165t165 102t195 36.5q111 0 203.5 -42t146.5 -111v125h164v-920q0 -303 -141 -443.5t-396 -140.5q-171 0 -319 89l-6 163h26q70 -51 144 -77.5t178 -26.5q155 0 252.5 90t97.5 258v156q-63 -79 -157.5 -119.5t-202.5 -40.5q-102 0 -194 36.5 t-162 102t-111 164.5t-41 217zM242 520q0 -99 39 -182t123 -137t198 -54t198 53.5t123.5 137t39.5 182.5t-39.5 182.5t-123.5 137t-198 53.5t-198 -54t-123 -137t-39 -182z" />
<glyph unicode="h" horiz-adv-x="1136" d="M131 0v1475h164v-619q55 80 154.5 132t203.5 52q164 0 264.5 -95.5t100.5 -258.5v-686h-164v651q0 112 -70.5 177t-181.5 65q-127 0 -217 -95t-90 -235v-563h-164z" />
<glyph unicode="i" horiz-adv-x="446" d="M109 1319q0 47 33.5 81t80.5 34t81 -34t34 -81t-34 -81t-81 -34t-80.5 34t-33.5 81zM141 0v1012h164v-1012h-164z" />
<glyph unicode="j" horiz-adv-x="460" d="M-94 -305h20q59 -39 109 -39q123 0 123 147v1209h164v-1178q0 -158 -67.5 -242t-195.5 -84q-81 0 -137 35zM125 1317q0 47 33.5 82t79.5 35q47 0 81.5 -35t34.5 -82q0 -46 -34.5 -79.5t-81.5 -33.5q-46 0 -79.5 33.5t-33.5 79.5z" />
<glyph unicode="k" horiz-adv-x="909" d="M131 0v1475h164v-928l395 465h174l-405 -475l415 -537h-176l-403 518v-518h-164z" />
<glyph unicode="l" horiz-adv-x="425" d="M131 0v1475h164v-1475h-164z" />
<glyph unicode="m" horiz-adv-x="1579" d="M131 0v1012h164v-125q46 71 123.5 112t167.5 41q186 0 260 -166q46 73 133 119.5t178 46.5q150 0 226.5 -86t76.5 -235v-719h-164v696q0 93 -53 145t-143 52q-91 0 -154 -69t-63 -177v-647h-164v694q0 96 -57.5 147.5t-141.5 51.5q-101 0 -163 -80t-62 -217v-596h-164z " />
<glyph unicode="n" horiz-adv-x="1120" d="M131 0v1012h164v-152q56 80 150 130t200 50q159 0 257.5 -96t98.5 -258v-686h-163v651q0 113 -67 177.5t-177 64.5q-126 0 -212.5 -94.5t-86.5 -235.5v-563h-164z" />
<glyph unicode="o" d="M78 506q0 232 152.5 383t377.5 151t378 -151t153 -383t-153 -383.5t-378 -151.5t-377.5 151.5t-152.5 383.5zM242 506q0 -171 104 -279t262 -108q159 0 263 108t104 279t-104 279t-263 108q-158 0 -262 -108t-104 -279z" />
<glyph unicode="p" horiz-adv-x="1263" d="M131 -463v1475h164v-152q69 77 164.5 128.5t210.5 51.5q219 0 367.5 -150.5t148.5 -383.5q0 -116 -40.5 -216.5t-109.5 -170t-162.5 -109t-197.5 -39.5q-121 0 -221.5 49.5t-159.5 126.5v-610h-164zM285 506q0 -161 105 -274t263 -113t263.5 113.5t105.5 273.5 t-105.5 273.5t-263.5 113.5t-263 -113t-105 -274z" />
<glyph unicode="q" horiz-adv-x="1263" d="M78 506q0 154 70.5 277t190 190t263.5 67q117 0 216 -50.5t151 -121.5v144h164v-1475h-164v610q-66 -79 -163 -127.5t-218 -48.5q-104 0 -197.5 39.5t-162.5 109t-109.5 170t-40.5 216.5zM242 506q0 -161 105 -274t263 -113t263.5 113.5t105.5 273.5t-105.5 273.5 t-263.5 113.5t-263 -113t-105 -274z" />
<glyph unicode="r" horiz-adv-x="806" d="M131 0v1012h164v-148q50 86 128.5 131t160.5 45q90 0 155 -47l11 -166h-19q-69 66 -172 66q-49 0 -93.5 -17.5t-84 -53t-63 -98.5t-23.5 -146v-578h-164z" />
<glyph unicode="s" horiz-adv-x="864" d="M82 74l39 155h12q141 -110 289 -110q96 0 150.5 41.5t54.5 109.5q0 73 -55.5 113t-180.5 82q-60 20 -106.5 44.5t-88 60t-64.5 86t-23 112.5q0 111 95.5 191.5t233.5 80.5q152 0 281 -77l6 -156h-14q-128 98 -273 98q-78 0 -130 -34.5t-52 -98.5q0 -66 58 -107t182 -85 q73 -25 123.5 -51t91.5 -61.5t60.5 -82.5t19.5 -106q0 -132 -109 -220t-262 -88q-181 0 -338 103z" />
<glyph unicode="t" horiz-adv-x="763" d="M35 864v148h194v213l164 78v-291h289v-148h-289v-620q0 -62 39.5 -93.5t91.5 -31.5q73 0 152 59h18l-12 -155q-55 -29 -94.5 -40.5t-95.5 -11.5q-120 0 -191.5 73.5t-71.5 203.5v616h-194z" />
<glyph unicode="u" horiz-adv-x="1120" d="M119 326v686h164v-652q0 -113 66.5 -177t176.5 -64q126 0 212.5 94.5t86.5 235.5v563h164v-1012h-164v152q-56 -80 -150 -130.5t-200 -50.5q-159 0 -257.5 96.5t-98.5 258.5z" />
<glyph unicode="v" horiz-adv-x="1064" d="M27 1012h184l321 -688l322 688h184l-493 -1012h-25z" />
<glyph unicode="w" horiz-adv-x="1568" d="M33 1012h172l287 -676l268 676h49l268 -676l287 676h172l-440 -1012h-45l-267 692l-266 -692h-45z" />
<glyph unicode="x" horiz-adv-x="948" d="M51 0l338 522l-317 490h182l225 -367l223 367h177l-306 -486l324 -526h-176l-246 393l-244 -393h-180z" />
<glyph unicode="y" horiz-adv-x="1021" d="M6 1012h184l306 -650l313 650h166l-713 -1475h-164l312 645z" />
<glyph unicode="z" horiz-adv-x="976" d="M72 0v20l546 844h-507v148h763v-21l-540 -844h555v-147h-817z" />
<glyph unicode="{" horiz-adv-x="647" d="M61 408v155h43q54 0 80.5 25.5t26.5 87.5v526q0 107 61 169.5t174 62.5h129v-156h-112q-88 0 -88 -102v-514q0 -146 -135 -177q135 -31 135 -176v-514q0 -102 88 -102h112v-156h-129q-113 0 -174 62.5t-61 169.5v526q0 62 -26.5 87.5t-80.5 25.5h-43z" />
<glyph unicode="|" horiz-adv-x="409" d="M123 -463v1897h164v-1897h-164z" />
<glyph unicode="}" horiz-adv-x="647" d="M72 -307h112q88 0 88 102v514q0 145 136 176q-136 31 -136 177v514q0 102 -88 102h-112v156h129q113 0 174 -62.5t61 -169.5v-526q0 -62 26.5 -87.5t80.5 -25.5h43v-155h-43q-54 0 -80.5 -25.5t-26.5 -87.5v-526q0 -107 -61 -169.5t-174 -62.5h-129v156z" />
<glyph unicode="~" horiz-adv-x="983" d="M98 584l13 149q86 86 194 86q55 0 110 -19t92.5 -41.5t87.5 -41.5t95 -19q94 0 182 88h13l-13 -149q-86 -86 -194 -86q-55 0 -110 19t-92.5 41.5t-87.5 41.5t-95 19q-94 0 -182 -88h-13z" />
<glyph unicode="&#xa1;" horiz-adv-x="520" d="M143 899q0 53 36.5 89t88.5 36t88.5 -36t36.5 -89t-36.5 -89t-88.5 -36t-88.5 36t-36.5 89zM186 -422v1024h164v-1024h-164z" />
<glyph unicode="&#xa2;" horiz-adv-x="991" d="M78 506q0 219 130.5 361.5t326.5 168.5v254h118v-252q144 -9 246 -88l6 -164h-18q-58 51 -112 75t-122 30v-770q123 11 230 104h18l-6 -164q-106 -82 -242 -88v-252h-118v254q-96 12 -179 54t-145 108.5t-97.5 161.5t-35.5 207zM242 506q0 -152 77 -255t216 -126v762 q-133 -25 -213 -129t-80 -252z" />
<glyph unicode="&#xa3;" horiz-adv-x="1062" d="M-10 696v135h151l9 89q14 167 82.5 290.5t174.5 187.5t236 64q159 0 291 -80l20 -188l-24 -6q-150 119 -287 119q-121 0 -210.5 -93t-108.5 -286l-11 -97h377v-135h-389l-53 -540h743v-156h-919l59 696h-141z" />
<glyph unicode="&#xa4;" horiz-adv-x="1187" d="M115 338l125 125q-88 115 -88 254t88 254l-125 125l100 100l129 -127q113 74 250 74t250 -74l129 127l100 -100l-125 -125q88 -115 88 -254t-88 -254l125 -125l-100 -100l-129 127q-113 -74 -250 -74t-250 74l-129 -127zM307 717q0 -125 84.5 -206t202.5 -81t202.5 81 t84.5 206t-84.5 206t-202.5 81t-202.5 -81t-84.5 -206z" />
<glyph unicode="&#xa5;" horiz-adv-x="1200" d="M29 1434h196l375 -652l375 652h196l-399 -676h236v-135h-316v-131h316v-136h-316v-356h-184v356h-315v136h315v131h-315v135h235z" />
<glyph unicode="&#xa6;" horiz-adv-x="409" d="M123 356h164v-819h-164v819zM123 614v820h164v-820h-164z" />
<glyph unicode="&#xa7;" horiz-adv-x="987" d="M72 547q0 178 172 295q-135 117 -135 268q0 99 57 180.5t149.5 126.5t196.5 45q204 0 336 -119l8 -182h-14q-153 166 -338 166q-103 0 -171.5 -60t-68.5 -155q0 -80 69.5 -149t246.5 -154q342 -162 342 -385q0 -177 -172 -297q135 -117 135 -266q0 -99 -57.5 -181 t-150 -127t-196.5 -45q-204 0 -336 119l-8 183h15q153 -166 337 -166q103 0 171.5 60t68.5 155q0 80 -69 149t-246 154q-342 162 -342 385zM221 557q0 -80 74 -148.5t219 -136.5q104 -53 123 -65q61 39 98 93t37 114q0 80 -74 148t-219 136q-77 34 -125 64 q-59 -37 -96 -91.5t-37 -113.5z" />
<glyph unicode="&#xa8;" horiz-adv-x="710" d="M61 1284q0 46 32.5 79.5t76.5 33.5q46 0 79.5 -33.5t33.5 -79.5q0 -44 -33.5 -76t-79.5 -32q-44 0 -76.5 32t-32.5 76zM428 1284q0 46 32.5 79.5t76.5 33.5q46 0 79 -33.5t33 -79.5q0 -44 -33 -76t-79 -32q-44 0 -76.5 32t-32.5 76z" />
<glyph unicode="&#xa9;" horiz-adv-x="1646" d="M78 717q0 153 55 290t151.5 237.5t236.5 159t302 58.5t302.5 -58.5t237 -159t151.5 -237.5t55 -290t-55 -290t-151.5 -237.5t-237 -159.5t-302.5 -59q-216 0 -387.5 100.5t-264.5 270.5t-93 375zM193 717q0 -178 78 -325t223 -234.5t329 -87.5q138 0 257 51t200.5 138.5 t127.5 206t46 251.5t-46 251.5t-127.5 206t-200.5 138.5t-257 51q-184 0 -329 -87.5t-223 -234.5t-78 -325zM473 717q0 174 112 279.5t269 105.5q128 0 211 -66l4 -116h-12q-89 75 -203 75q-116 0 -189 -78.5t-73 -199.5q0 -124 70 -201.5t192 -77.5q60 0 105.5 17.5 t93.5 58.5h14l-6 -117q-75 -65 -207 -65q-161 0 -271 105t-110 280z" />
<glyph unicode="&#xaa;" horiz-adv-x="872" d="M55 1073q0 156 107 265.5t264 109.5q79 0 144 -31.5t104 -77.5v88h117v-710h-117v90q-39 -47 -104 -79t-144 -32q-157 0 -264 109.5t-107 267.5zM170 1073q0 -116 70 -194t186 -78t186 78t70 194q0 114 -70.5 193.5t-185.5 79.5t-185.5 -79.5t-70.5 -193.5z" />
<glyph unicode="&#xab;" horiz-adv-x="1015" d="M66 668v86l469 405h22v-168l-330 -280l330 -281v-168h-22zM442 668v86l469 405h23v-168l-330 -280l330 -281v-168h-23z" />
<glyph unicode="&#xac;" horiz-adv-x="937" d="M106 639v147h725v-440h-155v293h-570z" />
<glyph unicode="&#xad;" horiz-adv-x="802" d="M86 582v135h631v-135h-631z" />
<glyph unicode="&#xae;" horiz-adv-x="1646" d="M78 717q0 153 55 290t151.5 237.5t236.5 159t302 58.5t302.5 -58.5t237 -159t151.5 -237.5t55 -290t-55 -290t-151.5 -237.5t-237 -159.5t-302.5 -59q-216 0 -387.5 100.5t-264.5 270.5t-93 375zM193 717q0 -178 78 -325t223 -234.5t329 -87.5q138 0 257 51t200.5 138.5 t127.5 206t46 251.5t-46 251.5t-127.5 206t-200.5 138.5t-257 51q-184 0 -329 -87.5t-223 -234.5t-78 -325zM602 352v762h221q112 0 182 -59t70 -158q0 -76 -49 -129t-119 -76l211 -340h-119l-200 328h-92v-328h-105zM707 778h112q142 0 142 119q0 58 -36.5 88.5 t-105.5 30.5h-112v-238z" />
<glyph unicode="&#xaf;" horiz-adv-x="593" d="M61 1208v131h471v-131h-471z" />
<glyph unicode="&#xb0;" horiz-adv-x="620" d="M59 1212q0 105 73 177.5t181 72.5t181 -72.5t73 -177.5t-73 -177t-181 -72t-181 72t-73 177zM158 1212q0 -70 42 -114.5t113 -44.5t113.5 44.5t42.5 114.5t-42.5 115t-113.5 45t-113 -45t-42 -115z" />
<glyph unicode="&#xb1;" horiz-adv-x="1011" d="M98 0v135h815v-135h-815zM98 684v135h340v340h135v-340h340v-135h-340v-340h-135v340h-340z" />
<glyph unicode="&#xb2;" horiz-adv-x="575" d="M29 717v16l284 336q74 88 74 168q0 46 -35.5 77.5t-87.5 31.5q-103 0 -184 -113h-19l9 129q39 39 92.5 62.5t107.5 23.5q102 0 168 -59t66 -152q0 -107 -121 -244l-152 -174h301v-102h-503z" />
<glyph unicode="&#xb3;" horiz-adv-x="581" d="M55 883h15q90 -78 190 -78q64 0 109 39.5t45 109.5t-46.5 112t-111.5 42q-40 0 -78 -12l-16 32l153 203h-256v103h445v-13l-178 -231q89 -11 150 -71t61 -150q0 -126 -80 -196.5t-193 -70.5q-108 0 -196 54z" />
<glyph unicode="&#xb4;" horiz-adv-x="577" d="M74 1153l188 281h242l-291 -281h-139z" />
<glyph unicode="&#xb5;" horiz-adv-x="1120" d="M119 -463v1475h164v-652q0 -113 66.5 -177t176.5 -64q126 0 212.5 94.5t86.5 235.5v563h164v-1012h-164v152q-56 -80 -150 -130.5t-200 -50.5q-110 0 -192 45v-479h-164z" />
<glyph unicode="&#xb6;" horiz-adv-x="1185" d="M49 1114q0 140 101 230t272 90h641v-1897h-176v1741h-260v-1741h-176v1258h-29q-171 0 -272 89.5t-101 229.5z" />
<glyph unicode="&#xb7;" horiz-adv-x="391" d="M90 717q0 49 34 84t81 35q49 0 84 -35t35 -84q0 -47 -35 -81t-84 -34q-47 0 -81 34t-34 81z" />
<glyph unicode="&#xb8;" horiz-adv-x="665" d="M115 -356l14 6q80 -45 152 -45q51 0 85.5 26.5t34.5 77.5t-34 77t-82 26q-58 0 -123 -29l-10 12l133 299l96 -35l-121 -186q59 23 121 23q74 0 122 -53t48 -130q0 -89 -69 -147t-185 -58q-93 0 -166 33z" />
<glyph unicode="&#xb9;" horiz-adv-x="245" d="M61 717v649l97 68h26v-717h-123z" />
<glyph unicode="&#xba;" horiz-adv-x="856" d="M55 1073q0 163 107.5 269t265.5 106t265.5 -106t107.5 -269q0 -164 -107.5 -270.5t-265.5 -106.5t-265.5 106.5t-107.5 270.5zM170 1073q0 -121 73 -196.5t185 -75.5q110 0 183 75.5t73 196.5q0 120 -73 196.5t-183 76.5q-111 0 -184.5 -76.5t-73.5 -196.5z" />
<glyph unicode="&#xbb;" horiz-adv-x="1015" d="M82 262v168l330 281l-330 280v168h22l469 -405v-86l-469 -406h-22zM459 262v168l329 281l-329 280v168h22l469 -405v-86l-469 -406h-22z" />
<glyph unicode="&#xbc;" horiz-adv-x="1064" d="M27 313l960 498l51 -100l-960 -498zM266 717v649l96 68h27v-717h-123zM307 -231l395 485h52v-451h98v-102h-98v-164h-123v164h-324v68zM459 -197h172v209z" />
<glyph unicode="&#xbd;" horiz-adv-x="1064" d="M27 313l960 498l51 -100l-960 -498zM266 717v649l96 68h27v-717h-123zM401 -446l285 335q74 88 74 168q0 46 -35.5 77.5t-87.5 31.5q-103 0 -184 -113h-19l8 129q39 39 93 62.5t108 23.5q102 0 168 -59t66 -152q0 -106 -121 -243l-152 -174h301v-103h-504v17z" />
<glyph unicode="&#xbe;" horiz-adv-x="1064" d="M27 313l960 498l51 -100l-960 -498zM43 883h14q90 -78 191 -78q64 0 108.5 39.5t44.5 109.5q0 71 -46 112.5t-111 41.5q-40 0 -78 -12l-16 32l153 203h-256v103h445v-13l-179 -231q89 -11 150 -71t61 -150q0 -126 -79.5 -196.5t-192.5 -70.5q-109 0 -197 54zM307 -231 l395 485h52v-451h98v-102h-98v-164h-123v164h-324v68zM459 -197h172v209z" />
<glyph unicode="&#xbf;" horiz-adv-x="884" d="M90 -119q0 86 33 160t79.5 126t93 100.5t79.5 107t33 123.5v88h163v-64q0 -62 -17.5 -117t-45.5 -97t-62 -80.5t-67.5 -75.5t-61.5 -74t-45.5 -83t-17.5 -97q0 -97 65.5 -155t172.5 -58q93 0 178 50t135 113h18l-12 -176q-61 -50 -151 -86.5t-177 -36.5 q-172 0 -282.5 90.5t-110.5 241.5zM356 899q0 53 36 89t89 36t89 -36t36 -89t-36 -89t-89 -36t-89 36t-36 89z" />
<glyph unicode="&#xc0;" horiz-adv-x="1368" d="M35 0l622 1434h54l622 -1434h-184l-123 291h-684l-123 -291h-184zM309 1855h242l188 -280h-139zM410 446h548l-274 644z" />
<glyph unicode="&#xc1;" horiz-adv-x="1368" d="M35 0l622 1434h54l622 -1434h-184l-123 291h-684l-123 -291h-184zM410 446h548l-274 644zM629 1575l188 280h242l-291 -280h-139z" />
<glyph unicode="&#xc2;" horiz-adv-x="1368" d="M35 0l622 1434h54l622 -1434h-184l-123 291h-684l-123 -291h-184zM377 1575l205 280h215l204 -280h-122l-191 182l-188 -182h-123zM410 446h548l-274 644z" />
<glyph unicode="&#xc3;" horiz-adv-x="1368" d="M35 0l622 1434h54l622 -1434h-184l-123 291h-684l-123 -291h-184zM324 1602l14 147q92 86 203 86q49 0 95.5 -18.5t76.5 -40t69 -40t76 -18.5q88 0 178 99h11l-15 -148q-92 -86 -203 -86q-49 0 -95.5 18.5t-76.5 40t-69 40t-76 18.5q-89 0 -178 -98h-10zM410 446h548 l-274 644z" />
<glyph unicode="&#xc4;" horiz-adv-x="1368" d="M35 0l622 1434h54l622 -1434h-184l-123 291h-684l-123 -291h-184zM391 1706q0 46 32.5 79.5t76.5 33.5q46 0 79 -33.5t33 -79.5q0 -44 -33 -76.5t-79 -32.5q-44 0 -76.5 32.5t-32.5 76.5zM410 446h548l-274 644zM758 1706q0 46 32 79.5t76 33.5q46 0 79.5 -33.5 t33.5 -79.5q0 -44 -33.5 -76.5t-79.5 -32.5q-44 0 -76 32.5t-32 76.5z" />
<glyph unicode="&#xc5;" horiz-adv-x="1368" d="M35 0l596 1370q-70 19 -114 74.5t-44 126.5q0 87 61 147t150 60t150 -60t61 -147q0 -71 -44 -126.5t-114 -74.5l596 -1370h-184l-123 291h-684l-123 -291h-184zM410 446h548l-274 644zM555 1571q0 -54 36 -91.5t93 -37.5t93 37.5t36 91.5t-36 91.5t-93 37.5t-93 -37.5 t-36 -91.5z" />
<glyph unicode="&#xc6;" horiz-adv-x="1994" d="M35 0l622 1434h666l70 -156h-623l207 -463h571l66 -156h-570l222 -503h626l68 -156h-811l-123 291h-684l-123 -291h-184zM412 446h546l-274 644z" />
<glyph unicode="&#xc7;" horiz-adv-x="1353" d="M82 717q0 160 57.5 299t156.5 236.5t234.5 153.5t286.5 56q237 0 418 -123l12 -202h-20q-184 170 -418 170q-109 0 -207 -41t-173 -115t-119 -186.5t-44 -247.5t44 -247.5t119 -186.5t173 -115t207 -41q234 0 418 170h20l-12 -203q-177 -120 -418 -123l-63 -98 q59 23 120 23q78 0 124 -52t46 -131q0 -89 -66 -147t-181 -58q-99 0 -172 33l-17 103l15 6q80 -45 151 -45q48 0 84.5 28t36.5 80q0 51 -35 75t-86 24q-54 0 -119 -29l-10 12l80 182q-136 15 -255 76t-204.5 157t-134.5 227.5t-49 279.5z" />
<glyph unicode="&#xc8;" horiz-adv-x="1062" d="M143 0v1434h820v-156h-635v-463h612v-156h-612v-503h643v-156h-828zM299 1855h242l188 -280h-139z" />
<glyph unicode="&#xc9;" horiz-adv-x="1062" d="M143 0v1434h820v-156h-635v-463h612v-156h-612v-503h643v-156h-828zM397 1575l189 280h241l-290 -280h-140z" />
<glyph unicode="&#xca;" horiz-adv-x="1062" d="M143 0v1434h820v-156h-635v-463h612v-156h-612v-503h643v-156h-828zM250 1575l205 280h215l204 -280h-122l-191 182l-188 -182h-123z" />
<glyph unicode="&#xcb;" horiz-adv-x="1062" d="M143 0v1434h820v-156h-635v-463h612v-156h-612v-503h643v-156h-828zM287 1706q0 46 32 79.5t76 33.5q46 0 79.5 -33.5t33.5 -79.5q0 -44 -33.5 -76.5t-79.5 -32.5q-44 0 -76 32.5t-32 76.5zM653 1706q0 46 32.5 79.5t76.5 33.5q46 0 79 -33.5t33 -79.5q0 -44 -33 -76.5 t-79 -32.5q-44 0 -76.5 32.5t-32.5 76.5z" />
<glyph unicode="&#xcc;" horiz-adv-x="471" d="M-72 1855h242l188 -280h-139zM143 0v1434h185v-1434h-185z" />
<glyph unicode="&#xcd;" horiz-adv-x="471" d="M102 1575l189 280h241l-290 -280h-140zM143 0v1434h185v-1434h-185z" />
<glyph unicode="&#xce;" horiz-adv-x="471" d="M-76 1575l205 280h215l205 -280h-123l-190 182l-189 -182h-123zM143 0v1434h185v-1434h-185z" />
<glyph unicode="&#xcf;" horiz-adv-x="471" d="M-57 1706q0 46 32 79.5t76 33.5q46 0 79.5 -33.5t33.5 -79.5q0 -44 -33.5 -76.5t-79.5 -32.5q-44 0 -76 32.5t-32 76.5zM143 0v1434h185v-1434h-185zM309 1706q0 46 32.5 79.5t76.5 33.5q46 0 79 -33.5t33 -79.5q0 -44 -33 -76.5t-79 -32.5q-44 0 -76.5 32.5t-32.5 76.5z " />
<glyph unicode="&#xd0;" horiz-adv-x="1296" d="M0 647v135h160v652h319q147 0 280 -49.5t234 -139.5t161 -227t60 -301t-60 -301t-161 -227t-234 -139.5t-280 -49.5h-319v647h-160zM344 156h139q114 0 213.5 37.5t174 107t117 177t42.5 239.5t-42.5 239.5t-117 177t-174 107t-213.5 37.5h-139v-496h287v-135h-287v-491z " />
<glyph unicode="&#xd1;" horiz-adv-x="1382" d="M143 0v1434h70l842 -1008v1008h184v-1434h-70l-841 1012v-1012h-185zM330 1602l14 147q92 86 203 86q49 0 95.5 -18.5t76.5 -40t69 -40t76 -18.5q88 0 178 99h11l-15 -148q-92 -86 -202 -86q-49 0 -96 18.5t-77 40t-69 40t-76 18.5q-89 0 -178 -98h-10z" />
<glyph unicode="&#xd2;" horiz-adv-x="1658" d="M82 717q0 158 58.5 296.5t158 237t237.5 155t293 56.5t293 -56.5t238 -155t158.5 -237t58.5 -296.5q0 -210 -99.5 -381.5t-270.5 -268t-378 -96.5t-378 96.5t-270 268t-99 381.5zM266 717q0 -135 44 -247.5t120.5 -186.5t179 -115t219.5 -41q157 0 284 69.5t203.5 205.5 t76.5 315t-76.5 315t-203.5 205.5t-284 69.5q-117 0 -219.5 -41t-179 -115t-120.5 -186.5t-44 -247.5zM522 1855h242l188 -280h-139z" />
<glyph unicode="&#xd3;" horiz-adv-x="1658" d="M82 717q0 158 58.5 296.5t158 237t237.5 155t293 56.5t293 -56.5t238 -155t158.5 -237t58.5 -296.5q0 -210 -99.5 -381.5t-270.5 -268t-378 -96.5t-378 96.5t-270 268t-99 381.5zM266 717q0 -135 44 -247.5t120.5 -186.5t179 -115t219.5 -41q157 0 284 69.5t203.5 205.5 t76.5 315t-76.5 315t-203.5 205.5t-284 69.5q-117 0 -219.5 -41t-179 -115t-120.5 -186.5t-44 -247.5zM707 1575l188 280h242l-291 -280h-139z" />
<glyph unicode="&#xd4;" horiz-adv-x="1658" d="M82 717q0 158 58.5 296.5t158 237t237.5 155t293 56.5t293 -56.5t238 -155t158.5 -237t58.5 -296.5q0 -210 -99.5 -381.5t-270.5 -268t-378 -96.5t-378 96.5t-270 268t-99 381.5zM266 717q0 -135 44 -247.5t120.5 -186.5t179 -115t219.5 -41q157 0 284 69.5t203.5 205.5 t76.5 315t-76.5 315t-203.5 205.5t-284 69.5q-117 0 -219.5 -41t-179 -115t-120.5 -186.5t-44 -247.5zM518 1575l205 280h215l205 -280h-123l-191 182l-188 -182h-123z" />
<glyph unicode="&#xd5;" horiz-adv-x="1658" d="M82 717q0 158 58.5 296.5t158 237t237.5 155t293 56.5t293 -56.5t238 -155t158.5 -237t58.5 -296.5q0 -210 -99.5 -381.5t-270.5 -268t-378 -96.5t-378 96.5t-270 268t-99 381.5zM266 717q0 -135 44 -247.5t120.5 -186.5t179 -115t219.5 -41q157 0 284 69.5t203.5 205.5 t76.5 315t-76.5 315t-203.5 205.5t-284 69.5q-117 0 -219.5 -41t-179 -115t-120.5 -186.5t-44 -247.5zM469 1602l14 147q92 86 203 86q49 0 96 -18.5t77 -40t69 -40t76 -18.5q88 0 178 99h10l-14 -148q-92 -86 -203 -86q-49 0 -96 18.5t-77 40t-69 40t-76 18.5 q-89 0 -178 -98h-10z" />
<glyph unicode="&#xd6;" horiz-adv-x="1658" d="M82 717q0 158 58.5 296.5t158 237t237.5 155t293 56.5t293 -56.5t238 -155t158.5 -237t58.5 -296.5q0 -210 -99.5 -381.5t-270.5 -268t-378 -96.5t-378 96.5t-270 268t-99 381.5zM266 717q0 -135 44 -247.5t120.5 -186.5t179 -115t219.5 -41q157 0 284 69.5t203.5 205.5 t76.5 315t-76.5 315t-203.5 205.5t-284 69.5q-117 0 -219.5 -41t-179 -115t-120.5 -186.5t-44 -247.5zM537 1706q0 46 32 79.5t76 33.5q46 0 79.5 -33.5t33.5 -79.5q0 -44 -33.5 -76.5t-79.5 -32.5q-44 0 -76 32.5t-32 76.5zM903 1706q0 46 32.5 79.5t76.5 33.5 q46 0 79 -33.5t33 -79.5q0 -44 -33 -76.5t-79 -32.5q-44 0 -76.5 32.5t-32.5 76.5z" />
<glyph unicode="&#xd7;" horiz-adv-x="868" d="M98 512l240 240l-240 239l97 96l239 -239l240 239l96 -96l-240 -239l240 -240l-96 -96l-240 239l-239 -239z" />
<glyph unicode="&#xd8;" horiz-adv-x="1658" d="M82 717q0 158 58.5 296.5t158 237t237.5 155t293 56.5q157 0 304 -59l59 104l135 -73l-59 -107q144 -100 226.5 -259.5t82.5 -350.5q0 -210 -99.5 -381.5t-270.5 -268t-378 -96.5q-154 0 -303 60l-59 -105l-135 74l59 106q-144 100 -226.5 259.5t-82.5 351.5zM266 717 q0 -153 54 -273.5t151 -197.5l584 1020q-106 41 -226 41q-117 0 -219.5 -41t-179 -115t-120.5 -186.5t-44 -247.5zM604 168q106 -41 225 -41q157 0 284 69.5t203.5 205.5t76.5 315q0 153 -54 273.5t-151 197.5z" />
<glyph unicode="&#xd9;" horiz-adv-x="1306" d="M123 535v899h184v-930q0 -98 30 -173t80.5 -118t110 -64.5t125.5 -21.5t125.5 21.5t110 64.5t80.5 118t30 173v930h185v-899q0 -268 -146 -416t-385 -148q-238 0 -384 147.5t-146 416.5zM397 1855h242l188 -280h-139z" />
<glyph unicode="&#xda;" horiz-adv-x="1306" d="M123 535v899h184v-930q0 -98 30 -173t80.5 -118t110 -64.5t125.5 -21.5t125.5 21.5t110 64.5t80.5 118t30 173v930h185v-899q0 -268 -146 -416t-385 -148q-238 0 -384 147.5t-146 416.5zM479 1575l189 280h241l-291 -280h-139z" />
<glyph unicode="&#xdb;" horiz-adv-x="1306" d="M123 535v899h184v-930q0 -98 30 -173t80.5 -118t110 -64.5t125.5 -21.5t125.5 21.5t110 64.5t80.5 118t30 173v930h185v-899q0 -268 -146 -416t-385 -148q-238 0 -384 147.5t-146 416.5zM342 1575l205 280h215l205 -280h-123l-191 182l-188 -182h-123z" />
<glyph unicode="&#xdc;" horiz-adv-x="1306" d="M123 535v899h184v-930q0 -98 30 -173t80.5 -118t110 -64.5t125.5 -21.5t125.5 21.5t110 64.5t80.5 118t30 173v930h185v-899q0 -268 -146 -416t-385 -148q-238 0 -384 147.5t-146 416.5zM360 1706q0 46 32.5 79.5t76.5 33.5q46 0 79.5 -33.5t33.5 -79.5 q0 -44 -33.5 -76.5t-79.5 -32.5q-44 0 -76.5 32.5t-32.5 76.5zM727 1706q0 46 32.5 79.5t76.5 33.5q46 0 79 -33.5t33 -79.5q0 -44 -33 -76.5t-79 -32.5q-44 0 -76.5 32.5t-32.5 76.5z" />
<glyph unicode="&#xdd;" horiz-adv-x="1200" d="M29 1434h196l375 -652l375 652h196l-479 -811v-623h-184v623zM426 1575l188 280h242l-291 -280h-139z" />
<glyph unicode="&#xde;" horiz-adv-x="1028" d="M123 0v1434h184v-271h180q118 0 215 -37.5t158.5 -100t95 -142t33.5 -166.5t-33.5 -166.5t-95 -142.5t-158.5 -100.5t-215 -37.5h-180v-270h-184zM307 426h182q141 0 228.5 77t87.5 214t-87.5 214t-228.5 77h-182v-582z" />
<glyph unicode="&#xdf;" horiz-adv-x="1198" d="M70 864v148h137v78q0 112 53.5 198.5t137.5 130t182 43.5q170 0 271 -94t101 -242q0 -119 -64.5 -206t-170.5 -134q82 -19 152 -52.5t130 -84t94.5 -125t34.5 -164.5q0 -174 -105 -281.5t-265 -107.5q-83 0 -164.5 26.5t-140.5 72.5l39 159h12q43 -46 110.5 -74 t126.5 -28q99 0 161.5 65t62.5 177q0 140 -130.5 228.5t-328.5 100.5v148q132 11 207 81t75 189q0 86 -57.5 146.5t-150.5 60.5q-92 0 -150.5 -61t-58.5 -166v-1096h-164v864h-137z" />
<glyph unicode="&#xe0;" horiz-adv-x="1255" d="M78 506q0 146 68.5 268.5t190 194t269.5 71.5q112 0 204.5 -44t150.5 -111v127h163v-1012h-163v127q-58 -67 -150.5 -111.5t-204.5 -44.5q-148 0 -269.5 72t-190 194.5t-68.5 268.5zM242 506q0 -163 100 -275t264 -112t264.5 112t100.5 275t-100.5 275t-264.5 112 t-264 -112t-100 -275zM350 1434h242l188 -281h-139z" />
<glyph unicode="&#xe1;" horiz-adv-x="1255" d="M78 506q0 146 68.5 268.5t190 194t269.5 71.5q112 0 204.5 -44t150.5 -111v127h163v-1012h-163v127q-58 -67 -150.5 -111.5t-204.5 -44.5q-148 0 -269.5 72t-190 194.5t-68.5 268.5zM242 506q0 -163 100 -275t264 -112t264.5 112t100.5 275t-100.5 275t-264.5 112 t-264 -112t-100 -275zM432 1153l189 281h241l-291 -281h-139z" />
<glyph unicode="&#xe2;" horiz-adv-x="1255" d="M78 506q0 146 68.5 268.5t190 194t269.5 71.5q112 0 204.5 -44t150.5 -111v127h163v-1012h-163v127q-58 -67 -150.5 -111.5t-204.5 -44.5q-148 0 -269.5 72t-190 194.5t-68.5 268.5zM242 506q0 -163 100 -275t264 -112t264.5 112t100.5 275t-100.5 275t-264.5 112 t-264 -112t-100 -275zM295 1153l205 281h215l205 -281h-123l-191 182l-188 -182h-123z" />
<glyph unicode="&#xe3;" horiz-adv-x="1255" d="M78 506q0 146 68.5 268.5t190 194t269.5 71.5q112 0 204.5 -44t150.5 -111v127h163v-1012h-163v127q-58 -67 -150.5 -111.5t-204.5 -44.5q-148 0 -269.5 72t-190 194.5t-68.5 268.5zM242 506q0 -163 100 -275t264 -112t264.5 112t100.5 275t-100.5 275t-264.5 112 t-264 -112t-100 -275zM256 1180l14 147q92 86 203 86q49 0 96 -18.5t77 -40t69 -40t76 -18.5q88 0 178 99h10l-14 -148q-92 -86 -203 -86q-49 0 -96 18.5t-77 40t-69 40t-76 18.5q-89 0 -178 -98h-10z" />
<glyph unicode="&#xe4;" horiz-adv-x="1255" d="M78 506q0 146 68.5 268.5t190 194t269.5 71.5q112 0 204.5 -44t150.5 -111v127h163v-1012h-163v127q-58 -67 -150.5 -111.5t-204.5 -44.5q-148 0 -269.5 72t-190 194.5t-68.5 268.5zM242 506q0 -163 100 -275t264 -112t264.5 112t100.5 275t-100.5 275t-264.5 112 t-264 -112t-100 -275zM313 1284q0 46 32.5 79.5t76.5 33.5q46 0 79.5 -33.5t33.5 -79.5q0 -44 -33.5 -76t-79.5 -32q-44 0 -76.5 32t-32.5 76zM680 1284q0 46 32 79.5t76 33.5q46 0 79.5 -33.5t33.5 -79.5q0 -44 -33.5 -76t-79.5 -32q-44 0 -76 32t-32 76z" />
<glyph unicode="&#xe5;" horiz-adv-x="1255" d="M78 506q0 146 68.5 268.5t190 194t269.5 71.5q112 0 204.5 -44t150.5 -111v127h163v-1012h-163v127q-58 -67 -150.5 -111.5t-204.5 -44.5q-148 0 -269.5 72t-190 194.5t-68.5 268.5zM242 506q0 -163 100 -275t264 -112t264.5 112t100.5 275t-100.5 275t-264.5 112 t-264 -112t-100 -275zM395 1321q0 87 61 147t150 60t150 -60t61 -147t-61 -147t-150 -60t-150 60t-61 147zM477 1321q0 -54 36 -91.5t93 -37.5t93 37.5t36 91.5t-36 91.5t-93 37.5t-93 -37.5t-36 -91.5z" />
<glyph unicode="&#xe6;" horiz-adv-x="1775" d="M78 250q0 74 28 133.5t74.5 99t109.5 66t129 38t136 11.5h141q0 81 -20.5 142.5t-55 96t-75.5 51.5t-86 17q-153 0 -279 -133h-22l16 170q53 39 136 68.5t165 29.5q110 0 200 -52.5t134 -141.5q72 91 174 142.5t217 51.5q215 0 352.5 -135.5t137.5 -359.5v-82h-830 q9 -108 65 -188t134 -118t164 -38q108 0 193.5 36.5t185.5 127.5h16l-6 -179q-90 -67 -182 -100t-205 -33q-139 0 -254 62t-185 170q-64 -106 -165.5 -169t-214.5 -63q-147 0 -237.5 82.5t-90.5 196.5zM250 268q0 -69 47 -109t125 -40q49 0 96 21t87.5 61t65.5 108.5 t25 153.5q-446 0 -446 -195zM868 598h672q-15 137 -108 222t-232 85q-117 0 -212 -80.5t-120 -226.5z" />
<glyph unicode="&#xe7;" horiz-adv-x="1011" d="M78 506q0 161 74.5 284.5t193.5 186.5t260 63q175 0 293 -90l6 -164h-18q-67 57 -131 82t-150 25q-161 0 -262.5 -109t-101.5 -278q0 -171 97 -279t267 -108q84 0 147.5 24.5t129.5 81.5h18l-6 -164q-116 -90 -287 -90l-63 -98q59 23 121 23q78 0 124 -52t46 -131 q0 -89 -66.5 -147t-181.5 -58q-99 0 -172 33l-17 103l15 6q80 -45 151 -45q48 0 84.5 28t36.5 80q0 51 -35 75t-86 24q-54 0 -119 -29l-10 12l82 185q-192 27 -316 168t-124 358z" />
<glyph unicode="&#xe8;" horiz-adv-x="1157" d="M78 506q0 112 40.5 212t109 170t161 111t193.5 41q215 0 352 -135.5t137 -359.5v-82h-829q9 -108 65 -188t133.5 -118t163.5 -38q108 0 193.5 36.5t185.5 127.5h16l-6 -179q-90 -67 -182 -100t-205 -33q-148 0 -269.5 71t-190 193.5t-68.5 270.5zM250 598h672 q-15 137 -108 222t-232 85q-117 0 -212 -80.5t-120 -226.5zM301 1434h242l188 -281h-139z" />
<glyph unicode="&#xe9;" horiz-adv-x="1157" d="M78 506q0 112 40.5 212t109 170t161 111t193.5 41q215 0 352 -135.5t137 -359.5v-82h-829q9 -108 65 -188t133.5 -118t163.5 -38q108 0 193.5 36.5t185.5 127.5h16l-6 -179q-90 -67 -182 -100t-205 -33q-148 0 -269.5 71t-190 193.5t-68.5 270.5zM250 598h672 q-15 137 -108 222t-232 85q-117 0 -212 -80.5t-120 -226.5zM424 1153l188 281h242l-291 -281h-139z" />
<glyph unicode="&#xea;" horiz-adv-x="1157" d="M78 506q0 112 40.5 212t109 170t161 111t193.5 41q215 0 352 -135.5t137 -359.5v-82h-829q9 -108 65 -188t133.5 -118t163.5 -38q108 0 193.5 36.5t185.5 127.5h16l-6 -179q-90 -67 -182 -100t-205 -33q-148 0 -269.5 71t-190 193.5t-68.5 270.5zM250 598h672 q-15 137 -108 222t-232 85q-117 0 -212 -80.5t-120 -226.5zM266 1153l205 281h215l205 -281h-123l-190 182l-189 -182h-123z" />
<glyph unicode="&#xeb;" horiz-adv-x="1157" d="M78 506q0 112 40.5 212t109 170t161 111t193.5 41q215 0 352 -135.5t137 -359.5v-82h-829q9 -108 65 -188t133.5 -118t163.5 -38q108 0 193.5 36.5t185.5 127.5h16l-6 -179q-90 -67 -182 -100t-205 -33q-148 0 -269.5 71t-190 193.5t-68.5 270.5zM250 598h672 q-15 137 -108 222t-232 85q-117 0 -212 -80.5t-120 -226.5zM285 1284q0 46 32 79.5t76 33.5q46 0 79.5 -33.5t33.5 -79.5q0 -44 -33.5 -76t-79.5 -32q-44 0 -76 32t-32 76zM651 1284q0 46 32.5 79.5t76.5 33.5q46 0 79 -33.5t33 -79.5q0 -44 -33 -76t-79 -32q-44 0 -76.5 32 t-32.5 76z" />
<glyph unicode="&#xec;" horiz-adv-x="446" d="M-63 1434h241l189 -281h-140zM141 0v1012h164v-1012h-164z" />
<glyph unicode="&#xed;" horiz-adv-x="446" d="M70 1153l188 281h242l-291 -281h-139zM141 0v1012h164v-1012h-164z" />
<glyph unicode="&#xee;" horiz-adv-x="446" d="M-88 1153l205 281h215l205 -281h-123l-191 182l-188 -182h-123zM141 0v1012h164v-1012h-164z" />
<glyph unicode="&#xef;" horiz-adv-x="446" d="M-70 1284q0 46 32.5 79.5t76.5 33.5q46 0 79.5 -33.5t33.5 -79.5q0 -44 -33.5 -76t-79.5 -32q-44 0 -76.5 32t-32.5 76zM141 0v1012h164v-1012h-164zM297 1284q0 46 32.5 79.5t76.5 33.5q46 0 79 -33.5t33 -79.5q0 -44 -33 -76t-79 -32q-44 0 -76.5 32t-32.5 76z" />
<glyph unicode="&#xf0;" horiz-adv-x="1169" d="M78 455q0 102 40.5 192t106.5 151.5t152.5 96.5t177.5 35q104 0 191.5 -45t142.5 -115q-31 221 -201 383l-334 -137l-32 82l292 119q-106 82 -258 137v32l146 68q160 -68 278 -168l181 76l32 -82l-145 -59q235 -256 235 -646q0 -170 -64 -307.5t-183 -217t-271 -79.5 q-131 0 -243 65.5t-178 177t-66 241.5zM262 455q0 -140 90 -230t219 -90t220.5 90.5t91.5 229.5t-91.5 229t-220.5 90t-219 -89.5t-90 -229.5z" />
<glyph unicode="&#xf1;" horiz-adv-x="1120" d="M131 0v1012h164v-152q56 80 150 130t200 50q159 0 257.5 -96t98.5 -258v-686h-163v651q0 113 -67 177.5t-177 64.5q-126 0 -212.5 -94.5t-86.5 -235.5v-563h-164zM219 1180l14 147q92 86 203 86q49 0 96 -18.5t77 -40t69 -40t76 -18.5q88 0 178 99h10l-14 -148 q-92 -86 -203 -86q-49 0 -95.5 18.5t-76.5 40t-69 40t-76 18.5q-90 0 -179 -98h-10z" />
<glyph unicode="&#xf2;" d="M78 506q0 232 152.5 383t377.5 151t378 -151t153 -383t-153 -383.5t-378 -151.5t-377.5 151.5t-152.5 383.5zM242 506q0 -171 104 -279t262 -108q159 0 263 108t104 279t-104 279t-263 108q-158 0 -262 -108t-104 -279zM332 1434h241l189 -281h-139z" />
<glyph unicode="&#xf3;" d="M78 506q0 232 152.5 383t377.5 151t378 -151t153 -383t-153 -383.5t-378 -151.5t-377.5 151.5t-152.5 383.5zM242 506q0 -171 104 -279t262 -108q159 0 263 108t104 279t-104 279t-263 108q-158 0 -262 -108t-104 -279zM455 1153l188 281h242l-291 -281h-139z" />
<glyph unicode="&#xf4;" d="M78 506q0 232 152.5 383t377.5 151t378 -151t153 -383t-153 -383.5t-378 -151.5t-377.5 151.5t-152.5 383.5zM242 506q0 -171 104 -279t262 -108q159 0 263 108t104 279t-104 279t-263 108q-158 0 -262 -108t-104 -279zM297 1153l205 281h215l205 -281h-123l-191 182 l-188 -182h-123z" />
<glyph unicode="&#xf5;" d="M78 506q0 232 152.5 383t377.5 151t378 -151t153 -383t-153 -383.5t-378 -151.5t-377.5 151.5t-152.5 383.5zM242 506q0 -171 104 -279t262 -108q159 0 263 108t104 279t-104 279t-263 108q-158 0 -262 -108t-104 -279zM248 1180l14 147q92 86 203 86q49 0 95.5 -18.5 t76.5 -40t69 -40t76 -18.5q89 0 179 99h10l-15 -148q-92 -86 -202 -86q-49 0 -96 18.5t-77 40t-69 40t-76 18.5q-89 0 -178 -98h-10z" />
<glyph unicode="&#xf6;" d="M78 506q0 232 152.5 383t377.5 151t378 -151t153 -383t-153 -383.5t-378 -151.5t-377.5 151.5t-152.5 383.5zM242 506q0 -171 104 -279t262 -108q159 0 263 108t104 279t-104 279t-263 108q-158 0 -262 -108t-104 -279zM315 1284q0 46 32.5 79.5t76.5 33.5 q46 0 79.5 -33.5t33.5 -79.5q0 -44 -33.5 -76t-79.5 -32q-44 0 -76.5 32t-32.5 76zM682 1284q0 46 32.5 79.5t76.5 33.5q46 0 79 -33.5t33 -79.5q0 -44 -33 -76t-79 -32q-44 0 -76.5 32t-32.5 76z" />
<glyph unicode="&#xf7;" horiz-adv-x="1011" d="M98 614v136h815v-136h-815zM389 307q0 49 34 84t81 35q50 0 84.5 -35t34.5 -84q0 -47 -35 -80.5t-84 -33.5q-47 0 -81 33.5t-34 80.5zM389 1061q0 49 34 84t81 35q50 0 84.5 -35t34.5 -84q0 -47 -35 -81t-84 -34q-47 0 -81 34t-34 81z" />
<glyph unicode="&#xf8;" d="M78 506q0 232 152.5 383t377.5 151q110 0 197 -34l45 79l135 -73l-45 -80q93 -72 146 -183t53 -243q0 -232 -153 -383.5t-378 -151.5q-106 0 -196 35l-45 -80l-136 74l45 80q-93 72 -145.5 182.5t-52.5 243.5zM242 506q0 -180 112 -289l377 657q-62 19 -123 19 q-158 0 -262 -108t-104 -279zM485 137q59 -18 123 -18q159 0 263 108t104 279q0 179 -113 289z" />
<glyph unicode="&#xf9;" horiz-adv-x="1120" d="M119 326v686h164v-652q0 -113 66.5 -177t176.5 -64q126 0 212.5 94.5t86.5 235.5v563h164v-1012h-164v152q-56 -80 -150 -130.5t-200 -50.5q-159 0 -257.5 96.5t-98.5 258.5zM262 1434h242l188 -281h-139z" />
<glyph unicode="&#xfa;" horiz-adv-x="1120" d="M119 326v686h164v-652q0 -113 66.5 -177t176.5 -64q126 0 212.5 94.5t86.5 235.5v563h164v-1012h-164v152q-56 -80 -150 -130.5t-200 -50.5q-159 0 -257.5 96.5t-98.5 258.5zM406 1153l188 281h242l-291 -281h-139z" />
<glyph unicode="&#xfb;" horiz-adv-x="1120" d="M119 326v686h164v-652q0 -113 66.5 -177t176.5 -64q126 0 212.5 94.5t86.5 235.5v563h164v-1012h-164v152q-56 -80 -150 -130.5t-200 -50.5q-159 0 -257.5 96.5t-98.5 258.5zM248 1153l205 281h215l204 -281h-122l-191 182l-188 -182h-123z" />
<glyph unicode="&#xfc;" horiz-adv-x="1120" d="M119 326v686h164v-652q0 -113 66.5 -177t176.5 -64q126 0 212.5 94.5t86.5 235.5v563h164v-1012h-164v152q-56 -80 -150 -130.5t-200 -50.5q-159 0 -257.5 96.5t-98.5 258.5zM266 1284q0 46 32.5 79.5t76.5 33.5q46 0 79 -33.5t33 -79.5q0 -44 -33 -76t-79 -32 q-44 0 -76.5 32t-32.5 76zM633 1284q0 46 32 79.5t76 33.5q46 0 79.5 -33.5t33.5 -79.5q0 -44 -33.5 -76t-79.5 -32q-44 0 -76 32t-32 76z" />
<glyph unicode="&#xfd;" horiz-adv-x="1038" d="M35 1012h184l305 -650l314 650h166l-713 -1475h-164l311 645zM365 1153l188 281h242l-291 -281h-139z" />
<glyph unicode="&#xfe;" horiz-adv-x="1263" d="M131 -463v1897h164v-574q69 77 164.5 128.5t210.5 51.5q219 0 367.5 -150.5t148.5 -383.5q0 -116 -40.5 -216.5t-109.5 -170t-162.5 -109t-197.5 -39.5q-121 0 -221.5 49.5t-159.5 126.5v-610h-164zM285 506q0 -161 105 -274t263 -113t263.5 113.5t105.5 273.5 t-105.5 273.5t-263.5 113.5t-263 -113t-105 -274z" />
<glyph unicode="&#xff;" horiz-adv-x="1038" d="M35 1012h184l305 -650l314 650h166l-713 -1475h-164l311 645zM225 1284q0 46 32.5 79.5t76.5 33.5q46 0 79 -33.5t33 -79.5q0 -44 -33 -76t-79 -32q-44 0 -76.5 32t-32.5 76zM592 1284q0 46 32 79.5t76 33.5q46 0 79.5 -33.5t33.5 -79.5q0 -44 -33.5 -76t-79.5 -32 q-44 0 -76 32t-32 76z" />
<glyph unicode="&#x152;" horiz-adv-x="2312" d="M82 717q0 158 58.5 296.5t158 237t237.5 155t293 56.5q167 0 313.5 -64.5t250.5 -180.5v217h819v-156h-635v-463h612v-156h-612v-503h643v-156h-827v217q-104 -117 -250.5 -181.5t-313.5 -64.5q-207 0 -378 96.5t-270 268t-99 381.5zM266 717q0 -135 44 -247.5 t120.5 -186.5t179 -115t219.5 -41q157 0 284 69.5t203.5 205.5t76.5 315t-76.5 315t-203.5 205.5t-284 69.5q-117 0 -219.5 -41t-179 -115t-120.5 -186.5t-44 -247.5z" />
<glyph unicode="&#x153;" horiz-adv-x="2054" d="M78 506q0 232 152.5 383t377.5 151q142 0 260 -64t189 -177q68 111 180.5 176t241.5 65q215 0 352 -135.5t137 -359.5v-82h-829q9 -108 65 -188t133.5 -118t163.5 -38q109 0 194 36.5t185 127.5h16l-6 -179q-90 -67 -182 -100t-205 -33q-142 0 -259 65t-187 177 q-69 -113 -188 -177.5t-261 -64.5q-225 0 -377.5 151.5t-152.5 383.5zM242 506q0 -171 104 -279t262 -108q159 0 263 108t104 279t-104 279t-263 108q-158 0 -262 -108t-104 -279zM1147 598h672q-15 137 -108 222t-232 85q-117 0 -212 -80.5t-120 -226.5z" />
<glyph unicode="&#x178;" horiz-adv-x="1200" d="M29 1434h196l375 -652l375 652h196l-479 -811v-623h-184v623zM307 1706q0 46 32.5 79.5t76.5 33.5q46 0 79 -33.5t33 -79.5q0 -44 -33 -76.5t-79 -32.5q-44 0 -76.5 32.5t-32.5 76.5zM674 1706q0 46 32 79.5t76 33.5q46 0 79.5 -33.5t33.5 -79.5q0 -44 -33.5 -76.5 t-79.5 -32.5q-44 0 -76 32.5t-32 76.5z" />
<glyph unicode="&#x2c6;" horiz-adv-x="780" d="M78 1153l205 281h215l204 -281h-122l-191 182l-188 -182h-123z" />
<glyph unicode="&#x2dc;" horiz-adv-x="1071" d="M174 1180l14 147q92 86 203 86q49 0 96 -18.5t77 -40t69 -40t76 -18.5q88 0 178 99h10l-14 -148q-92 -86 -203 -86q-49 0 -96 18.5t-77 40t-69 40t-76 18.5q-89 0 -178 -98h-10z" />
<glyph unicode="&#x2000;" horiz-adv-x="927" />
<glyph unicode="&#x2001;" horiz-adv-x="1855" />
<glyph unicode="&#x2002;" horiz-adv-x="927" />
<glyph unicode="&#x2003;" horiz-adv-x="1855" />
<glyph unicode="&#x2004;" horiz-adv-x="618" />
<glyph unicode="&#x2005;" horiz-adv-x="463" />
<glyph unicode="&#x2006;" horiz-adv-x="309" />
<glyph unicode="&#x2007;" horiz-adv-x="309" />
<glyph unicode="&#x2008;" horiz-adv-x="231" />
<glyph unicode="&#x2009;" horiz-adv-x="371" />
<glyph unicode="&#x200a;" horiz-adv-x="103" />
<glyph unicode="&#x2010;" horiz-adv-x="802" d="M86 582v135h631v-135h-631z" />
<glyph unicode="&#x2011;" horiz-adv-x="802" d="M86 582v135h631v-135h-631z" />
<glyph unicode="&#x2012;" horiz-adv-x="802" d="M86 582v135h631v-135h-631z" />
<glyph unicode="&#x2013;" horiz-adv-x="1110" d="M86 582v135h938v-135h-938z" />
<glyph unicode="&#x2014;" horiz-adv-x="1785" d="M86 582v135h1614v-135h-1614z" />
<glyph unicode="&#x2018;" horiz-adv-x="397" d="M82 1141q0 99 51 178.5t131 134.5l35 -33q-93 -76 -98 -170q46 0 80 -32t34 -80q0 -51 -32.5 -86t-81.5 -35q-51 0 -85 36t-34 87z" />
<glyph unicode="&#x2019;" horiz-adv-x="397" d="M82 1333q0 51 33 86t82 35q51 0 84.5 -35.5t33.5 -87.5q0 -99 -51 -178.5t-131 -134.5l-35 33q94 77 99 170q-46 0 -80.5 32t-34.5 80z" />
<glyph unicode="&#x201a;" horiz-adv-x="413" d="M90 113q0 51 33 85.5t82 34.5q51 0 85 -35.5t34 -86.5q0 -99 -51.5 -179t-131.5 -135l-35 33q94 77 99 170q-46 0 -80.5 32.5t-34.5 80.5z" />
<glyph unicode="&#x201c;" horiz-adv-x="688" d="M82 1141q0 99 51 178.5t131 134.5l35 -33q-93 -76 -98 -170q46 0 80 -32t34 -80q0 -51 -32.5 -86t-81.5 -35q-51 0 -85 36t-34 87zM373 1141q0 99 51 178.5t131 134.5l35 -33q-93 -76 -98 -170q46 0 80 -32t34 -80q0 -51 -32.5 -86t-81.5 -35q-51 0 -85 36t-34 87z" />
<glyph unicode="&#x201d;" horiz-adv-x="688" d="M82 1333q0 51 33 86t82 35q51 0 84.5 -35.5t33.5 -87.5q0 -99 -51 -178.5t-131 -134.5l-35 33q94 77 99 170q-46 0 -80.5 32t-34.5 80zM373 1333q0 51 32.5 86t81.5 35q51 0 85 -36t34 -87q0 -99 -51 -178.5t-131 -134.5l-35 33q93 76 98 170q-46 0 -80 32t-34 80z" />
<glyph unicode="&#x201e;" horiz-adv-x="704" d="M90 113q0 51 33 85.5t82 34.5q51 0 85 -35.5t34 -86.5q0 -99 -51.5 -179t-131.5 -135l-35 33q94 77 99 170q-46 0 -80.5 32.5t-34.5 80.5zM381 113q0 51 33 85.5t82 34.5q51 0 84.5 -35.5t33.5 -86.5q0 -99 -51 -179t-131 -135l-35 33q94 77 99 170q-46 0 -80.5 32.5 t-34.5 80.5z" />
<glyph unicode="&#x2022;" horiz-adv-x="585" d="M131 737q0 67 47.5 114.5t114.5 47.5t114.5 -47.5t47.5 -114.5t-47.5 -114.5t-114.5 -47.5t-114.5 47.5t-47.5 114.5z" />
<glyph unicode="&#x2026;" horiz-adv-x="1277" d="M90 102q0 49 34 84t81 35q49 0 84 -34.5t35 -84.5q0 -47 -35 -80.5t-84 -33.5q-47 0 -81 33.5t-34 80.5zM522 102q0 49 34 84t81 35q49 0 84 -34.5t35 -84.5q0 -47 -35 -80.5t-84 -33.5q-47 0 -81 33.5t-34 80.5zM954 102q0 49 34 84t81 35q49 0 84 -34.5t35 -84.5 q0 -47 -35 -80.5t-84 -33.5q-47 0 -81 33.5t-34 80.5z" />
<glyph unicode="&#x202f;" horiz-adv-x="371" />
<glyph unicode="&#x2039;" horiz-adv-x="638" d="M66 668v86l469 405h22v-168l-330 -280l330 -281v-168h-22z" />
<glyph unicode="&#x203a;" horiz-adv-x="638" d="M82 262v168l330 281l-330 280v168h22l469 -405v-86l-469 -406h-22z" />
<glyph unicode="&#x205f;" horiz-adv-x="463" />
<glyph unicode="&#x20ac;" horiz-adv-x="1286" d="M25 504l45 127h80q-5 36 -5 86t5 86h-125l45 127h102q62 233 237 382.5t416 149.5q206 0 334 -96l15 -176h-21q-78 65 -153.5 91t-178.5 26q-156 0 -282.5 -102.5t-178.5 -274.5h601l-46 -127h-581q-4 -54 -4 -86t4 -86h627l-46 -127h-555q52 -173 178 -275t283 -102 q103 0 178.5 26t153.5 91h21l-15 -176q-129 -97 -334 -97q-241 0 -416 150t-237 383h-147z" />
<glyph unicode="&#x2122;" horiz-adv-x="1433" d="M41 1331v103h491v-103h-184v-614h-123v614h-184zM528 717l199 717h21l213 -478l213 478h20l199 -717h-115l-115 436l-194 -436h-17l-194 436l-115 -436h-115z" />
<glyph unicode="&#xe000;" horiz-adv-x="1013" d="M0 0v1014h1014v-1014h-1014z" />
</font>
</defs>
</svg>
